<?xml version="1.0" encoding="utf-8"?>
<!-- Generator: Adobe Illustrator 22.0.1, SVG Export Plug-In . SVG Version: 6.00 Build 0)  -->
<svg version="1.1" id="Capa_1" xmlns="http://www.w3.org/2000/svg" xmlns:xlink="http://www.w3.org/1999/xlink" x="0px" y="0px"
	 viewBox="0 0 24 24" style="enable-background:new 0 0 24 24;" xml:space="preserve">
<style type="text/css">
	.st0{fill:#00713D;}
</style>
<title  id="simpleicons-linkedin-icon">LinkedIn icon</title>
<path class="st0" d="M17.4,7.8c-2.2,0-3.7,1.2-4.3,2.4H13v-2H8.6v14.7h4.6v-7.3c0-1.9,0.4-3.8,2.7-3.8s2.4,2.2,2.4,3.9v7.2h4.6l0,0
	v-8.1C22.9,10.9,22,7.8,17.4,7.8z"/>
<rect x="1.2" y="8.2" class="st0" width="4.6" height="14.7"/>
<path class="st0" d="M3.5,0.9C2,0.9,0.8,2.1,0.8,3.5C0.8,5,2,6.2,3.5,6.2S6.2,5,6.2,3.5C6.1,2.1,4.9,0.9,3.5,0.9z"/>
</svg>
