<?xml version="1.0" encoding="utf-8"?>
<!-- Generator: Adobe Illustrator 22.0.1, SVG Export Plug-In . SVG Version: 6.00 Build 0)  -->
<svg version="1.1" id="Capa_1" xmlns="http://www.w3.org/2000/svg" xmlns:xlink="http://www.w3.org/1999/xlink" x="0px" y="0px"
	 viewBox="0 0 500 500" style="enable-background:new 0 0 500 500;" xml:space="preserve">
<style type="text/css">
	.st0{fill:#79C15D;}
</style>
<g>
	<polygon class="st0" points="280.5,250 201.9,328.8 226.6,353.5 330.1,250 226.6,146.5 201.9,171.2 	"/>
	<path class="st0" d="M77.5,77.5C31.4,123.6,6,184.8,6,250s25.4,126.4,71.5,172.5S184.8,494,250,494s126.4-25.4,172.5-71.5
		S494,315.2,494,250s-25.4-126.4-71.5-172.5S315.2,6,250,6S123.6,31.4,77.5,77.5z M460.4,250c0,56.2-21.9,109-61.6,148.8
		c-39.8,39.7-92.6,61.6-148.8,61.6s-109-21.9-148.7-61.6C61.5,359,39.6,306.2,39.6,250C39.6,134,134,39.6,250,39.6
		S460.4,134,460.4,250z"/>
</g>
</svg>
