<?xml version="1.0" encoding="utf-8"?>
<!-- Generator: Adobe Illustrator 22.0.1, SVG Export Plug-In . SVG Version: 6.00 Build 0)  -->
<svg version="1.1" id="Capa_1" xmlns="http://www.w3.org/2000/svg" xmlns:xlink="http://www.w3.org/1999/xlink" x="0px" y="0px"
	 viewBox="0 0 500 500" style="enable-background:new 0 0 500 500;" xml:space="preserve">
<style type="text/css">
	.st0{fill:#0D703A;}
</style>
<g>
	<polygon class="st0" points="380.5,182.2 359.6,161.3 223.9,297 140.4,213.5 119.5,234.3 223.9,338.7 223.9,338.7 223.9,338.7 	"/>
	<path class="st0" d="M250,4C114.1,4,4,114.1,4,250c0,135.9,110.1,246,246,246c135.9,0,246-110.1,246-246C496,114.1,385.9,4,250,4z
		 M250,471.4c-122.3,0-221.4-99.1-221.4-221.4c0-122.3,99.1-221.4,221.4-221.4c122.3,0,221.4,99.1,221.4,221.4
		C471.4,372.3,372.3,471.4,250,471.4z"/>
</g>
</svg>
