<?xml version="1.0" encoding="utf-8"?>
<!-- Generator: Adobe Illustrator 22.0.1, SVG Export Plug-In . SVG Version: 6.00 Build 0)  -->
<svg version="1.1" id="Layer_1" xmlns="http://www.w3.org/2000/svg" xmlns:xlink="http://www.w3.org/1999/xlink" x="0px" y="0px"
	 viewBox="0 0 220.2 54" style="enable-background:new 0 0 220.2 54;" xml:space="preserve">
<style type="text/css">
	.st0{fill:#006192;}
	.st1{fill:#FFFFFF;}
</style>
<g>
	<g>
		<path d="M218,44.2c0.5-0.1,0.7-0.3,0.7-0.7c0-0.5-0.3-0.8-1-0.8h-1.1v2.8h0.4v-1.2h0.5l0,0l0.8,1.2h0.4L218,44.2L218,44.2z
			 M217.5,43.9h-0.5V43h0.6c0.3,0,0.6,0,0.6,0.4C218.3,43.9,217.9,43.9,217.5,43.9z"/>
		<path d="M217.6,41.5c-1.5,0-2.6,1.1-2.6,2.6c0,1.5,1.1,2.6,2.6,2.6s2.6-1.1,2.6-2.6C220.2,42.6,219,41.5,217.6,41.5z M217.6,46.3
			c-1.2,0-2.2-1-2.2-2.3c0-1.3,1-2.3,2.2-2.3c1.3,0,2.2,1,2.2,2.3C219.8,45.4,218.8,46.3,217.6,46.3z"/>
	</g>
	<g>
		<g>
			<polygon points="0,8 8.3,8 8.3,38.3 23.8,38.3 23.8,46 0,46 			"/>
			<g>
				<path d="M27.4,20.2h8V46h-8V20.2z M31.4,7.4c2.6,0,4.6,2.1,4.6,4.6c0,2.6-2.1,4.6-4.6,4.6c-2.6,0-4.6-2.1-4.6-4.6
					C26.8,9.5,28.9,7.4,31.4,7.4"/>
			</g>
			<polygon points="68.9,8 76.9,8 76.9,30.7 86,20.2 95.8,20.2 85.3,32.2 95.6,46 85.5,46 77,33.3 76.9,33.3 76.9,46 68.9,46 			"/>
			<path d="M39.9,20.2h7.7v3.5h0.1c1.1-2,3.7-4.2,7.6-4.2c8.1,0,9.6,5.3,9.6,12.3V46h-8V33.5c0-3-0.1-6.8-4.2-6.8
				c-4.2,0-4.8,3.3-4.8,6.6V46h-8V20.2z"/>
			<path d="M112.6,30.1c0.1-2.7-2-4.9-4.9-4.9c-3.5,0-5.4,2.4-5.7,4.9H112.6z M119.4,41.5c-2.6,3.3-6.8,5.1-10.9,5.1
				c-8,0-14.4-5.3-14.4-13.6c0-8.3,6.4-13.6,14.4-13.6c7.5,0,12.2,5.3,12.2,13.6v2.5h-18.6c0.6,3,2.9,5,6,5c2.6,0,4.4-1.3,5.7-3.1
				L119.4,41.5z"/>
			<path d="M137.3,26.5c-4,0-6.4,2.7-6.4,6.6c0,3.9,2.4,6.6,6.4,6.6c4,0,6.4-2.7,6.4-6.6C143.7,29.1,141.3,26.5,137.3,26.5
				 M151.1,46h-7.4v-3.4h-0.1c-1.2,1.9-4.3,4.1-8,4.1c-7.7,0-12.8-5.5-12.8-13.4c0-7.2,4.5-13.8,11.8-13.8c3.3,0,6.4,0.9,8.2,3.4
				h0.1V8h8V46z"/>
		</g>
		<path class="st0" d="M209.1,0h-46c-2.2,0-4,1.7-4,3.9v46.2c0,2.2,1.8,3.9,4,3.9h46c2.2,0,4-1.7,4-3.9V3.9
			C213.1,1.7,211.3,0,209.1,0z"/>
		<path class="st1" d="M167.1,20.2h8V46h-8V20.2z M171.1,7.4c2.6,0,4.6,2.1,4.6,4.6c0,2.6-2.1,4.6-4.6,4.6c-2.6,0-4.6-2.1-4.6-4.6
			C166.5,9.5,168.5,7.4,171.1,7.4"/>
		<path class="st1" d="M180.1,20.2h7.7v3.5h0.1c1.1-2,3.7-4.2,7.6-4.2c8.1,0,9.6,5.3,9.6,12.3V46h-8V33.5c0-3-0.1-6.8-4.2-6.8
			c-4.2,0-4.8,3.3-4.8,6.6V46h-8V20.2z"/>
	</g>
</g>
</svg>
