<?xml version="1.0" encoding="utf-8"?>
<!-- Generator: Adobe Illustrator 22.0.1, SVG Export Plug-In . SVG Version: 6.00 Build 0)  -->
<svg version="1.1" id="Capa_1" xmlns="http://www.w3.org/2000/svg" xmlns:xlink="http://www.w3.org/1999/xlink" x="0px" y="0px"
	 viewBox="0 0 500 343.3" style="enable-background:new 0 0 500 343.3;" xml:space="preserve">
<style type="text/css">
	.st0{fill:#4C6842;}
	.st1{fill:#99B846;}
	.st2{fill:#90BF4F;}
	.st3{fill:#3F6F41;}
</style>
<g>
	<g>
		<g>
			<path class="st0" d="M433.7,104.1c-17.7,11.5-35.1,23.5-52,36.1c24.8,14.8,49.4,30.2,73.7,45.8l0,0
				C448.1,158.6,440.9,131.4,433.7,104.1"/>
			<path class="st1" d="M425.9,60.3c-34.4,33.8-65,71-92.7,110.4l0,0c49.1-42.7,102.5-80.5,160.1-111v-0.1
				C470.9,58.9,448.4,59.1,425.9,60.3"/>
			<path class="st0" d="M313.1,193L313.1,193c29.8-49,64.4-95.1,104.6-136.2c-4.8-12.5-14.8-37.6-14.8-37.6
				c-13.6,15.3-25.6,32-36.7,49.2c-21.4,4.9-42.5,11.1-62.9,19.2c0,0,25.9,17.6,38.7,26.7C331.2,139.2,314.2,190,313.1,193"/>
			<path class="st0" d="M433.7,104.1c-17.7,11.5-35.1,23.5-52,36.1c24.8,14.8,49.4,30.2,73.7,45.8l0,0
				C448.1,158.6,440.9,131.4,433.7,104.1"/>
			<path class="st1" d="M425.9,60.3c-34.4,33.8-65,71-92.7,110.4l0,0c49.1-42.7,102.5-80.5,160.1-111v-0.1
				C470.9,58.9,448.4,59.1,425.9,60.3"/>
			<path class="st0" d="M313.1,193L313.1,193c29.8-49,64.4-95.1,104.6-136.2c-4.8-12.5-14.8-37.6-14.8-37.6
				c-13.6,15.3-25.6,32-36.7,49.2c-21.4,4.9-42.5,11.1-62.9,19.2c0,0,25.9,17.6,38.7,26.7C331.2,139.2,314.2,190,313.1,193"/>
			<path class="st2" d="M425.9,60.3c-34.4,33.8-65,71-92.7,110.4l0,0c49.1-42.7,102.5-80.5,160.1-111v-0.1
				C470.9,58.9,448.4,59.1,425.9,60.3"/>
			<path class="st3" d="M433.7,104.1c-17.7,11.5-35.1,23.5-52,36.1c24.8,14.8,49.4,30.2,73.7,45.8l0,0
				C448.1,158.6,440.9,131.4,433.7,104.1z M403,19.3c-13.6,15.3-25.6,32-36.7,49.2c-21.4,4.9-42.5,11.1-62.9,19.2
				c0,0,25.9,17.6,38.7,26.7c-10.8,24.9-27.7,75.7-28.8,78.7h0.1c29.8-49,64.3-95.1,104.6-136.2C412.8,44.4,403,19.3,403,19.3z"/>
		</g>
		<path class="st3" d="M392.3,216.2c-14.9,0-23.3,10.8-26.2,27.3c-2.8,16.3,3.2,25,17.2,25c10.5,0,20.8-4.8,24.1-17.2h-14.1
			c-1.2,4.6-4.1,7.2-8.2,7.2c-7.8,0-6-9.4-5.6-12h28.9c1.5-8.7,1.8-13.4,0.8-17.6C407.8,221.7,403.6,216.2,392.3,216.2z M396,236.3
			h-14.5c0.6-2.3,2.5-10.4,9.1-10.4C397.2,225.9,396.4,233.5,396,236.3z M350,228.2l1.5-10.3h-14.7l-1.4,10.6l-6.8,38.9h15l3.6-21
			c0.9-5.3,3.6-13.3,12.8-13.3c1,0,1.4,0.1,3.1,0.3l2.7-15.8C362.6,217.4,355.4,217.1,350,228.2z M454.8,233.2
			c1.7-13.8-6.9-16.6-15.5-16.6c-5.9,0-11,1.2-15,4.2c-3,2.2-5.9,6.4-6.8,11.2c-1.7,10.2,5.1,12.6,7.5,13.4l7.7,2.8
			c3.2,1.1,5.3,2.1,4.7,5.5c-0.4,2.2-2,5-5.4,5c-2.6,0-3.6-1.5-3.9-3c-0.4-1.7,0-3.5,0.1-4.4h-14.9c-2.9,15.9,8.7,17.4,16.8,17.4
			c3.5,0,19.4,0,22.3-16.7c1.7-9.7-3.5-12.3-7.2-13.6l-10.2-3.6c-2.3-0.8-3.7-1.9-3.3-4.7c0.5-3,2.9-4.3,5.2-4.3
			c2.4,0,3.3,1.1,3.7,2.6c0.3,1.5,0,3.3-0.3,4.8L454.8,233.2L454.8,233.2z M148.7,241.9c3-17.5-5.7-25.6-18.9-25.6
			c-16,0-25.5,11.1-28.1,26.2c-1,6-1.2,13.4,2.5,18.9c3.1,4.6,8.5,7.3,17.3,7.3c8.3,0,13.8-3,17.8-7.1
			C144.6,256.4,147.5,249,148.7,241.9z M133,242.6c-1.2,6.9-4,15.6-10.6,15.6c-1.4,0-4-0.2-5.1-3.9c-1-3.6-0.5-8.5,0.1-11.7
			c1.3-7.4,4-15.7,10.7-15.7C134.1,226.8,134.5,234,133,242.6z M178.8,267.4l23.9-49.5h-14.2l-14.6,34.7l-2-34.7h-16.2l6.8,49.5
			H178.8z M243.7,234.8c0.9-5.3,0.8-10-1.3-13c-3.3-5.1-11-5.7-14.6-5.7c-7.4,0-14,2.2-17.8,6.3c-3.7,3.8-4.4,8.1-4.9,10.4h14.5
			c0.9-5.6,3.8-7.5,6.7-7.5c4.5,0,4.3,4.9,3.3,10.3c-17.2-0.9-28.2,4-30.6,17.5c-1.5,8.8,1.7,15.4,11.6,15.4
			c8.3,0,12.2-4.7,14.6-8.1c-0.5,3.1-0.8,5.3-0.7,7.1H239c0.1-4.9,0.2-5.9,0.8-9.5L243.7,234.8z M225.2,253.3
			c-2.2,3.9-5.1,4.7-6.8,4.7c-3.6,0-5-3-4.3-6.7c1.2-7.1,7.5-7.2,13.9-7.3C227.6,246.1,226.9,250.1,225.2,253.3z M275.9,196.2h-15.1
			l-12.3,71.2h15.1L275.9,196.2z M305.3,216.3c-16,0-25.5,11.1-28.1,26.2c-1,6-1.2,13.4,2.5,18.9c3.1,4.6,8.5,7.3,17.3,7.3
			c8.3,0,13.8-3,17.8-7.1c5-5.1,8.1-12.4,9.3-19.7C327.1,224.3,318.4,216.3,305.3,216.3z M308.4,242.6c-1.2,6.9-4,15.6-10.6,15.6
			c-1.4,0-4-0.2-5.1-3.9c-1-3.6-0.5-8.5,0.1-11.7c1.3-7.4,4-15.7,10.7-15.7C309.4,226.8,309.9,234,308.4,242.6z M80.6,267.4l3.6-21
			c0.9-5.3,3.6-13.3,12.8-13.3c1,0,1.4,0.1,3.1,0.3l2.7-15.8c-3.4-0.1-10.7-0.4-16,10.7l1.5-10.3H73.8l-1.4,10.6l-6.8,38.9
			L80.6,267.4L80.6,267.4z M30.2,241.8l10.5-0.1c3.1,0,10.1,0,15.1-3c2.5-1.5,10-6.9,12.1-19.5c1.6-9.3-0.6-15.6-4.8-19.4
			c-4.1-3.6-10-3.6-14.5-3.6H22L9.7,267.4h16.1L30.2,241.8z M35.9,209.4H43c4.6,0,10.3,0.5,8.8,9.2c-1.6,9.6-8,9.6-11.9,9.6h-7.2
			L35.9,209.4z M85.1,294.6c-3.5,0-5.3,2.5-6,3.5l0.4-3h-6.2c-0.1,0.9-0.1,1.1-0.4,3.4l-4.3,25.6h6.3l1.8-10.5
			c0.6,1,1.6,2.9,4.5,2.9c3.8,0,8-3.2,9.4-11.4C91.8,296.6,87.8,294.6,85.1,294.6z M84,305.1c-0.5,3.1-1.7,6.8-4.3,6.8
			c-2.8,0-2.2-4.6-1.9-6.4c0.2-1.2,1.1-6.5,4.3-6.5C84.7,299.1,84.4,303.2,84,305.1z M41.9,299.4l0.6-4.3h-6l-0.6,4.5l-2.8,16.5h6.3
			l1.5-9c0.4-2.2,1.5-5.6,5.3-5.6c0.4,0,0.6,0,1.3,0.1l1.1-6.8C47.2,294.9,44.1,294.8,41.9,299.4z M62.7,295.1l-2,12.2
			c-0.2,1.2-0.7,4.2-3.3,4.2c-2.5,0-2-2.9-1.8-4.1l2.1-12.3h-6.3l-2,11.9c-0.7,4-1.2,9.6,4.5,9.6c1.5,0,3.6-0.2,5.8-3.6l-0.4,3.2
			h6.2c0.2-1.6,0.3-1.8,0.5-3.6l2.9-17.4h-6.2V295.1z M23.2,285.1c-2.9,0-7.2,0.6-10.6,4c-3.3,3.3-5,8.4-5.6,12
			c-0.8,4.8-0.2,9.6,2.3,12.5c2.3,2.6,5.8,3.1,8.5,3.1c3.5,0,7.3-0.6,10.9-1.7l2.7-16.2H20l-1,5.7h5.1l-1,5.8
			c-1.3,0.3-2.5,0.5-3.7,0.5c-4,0-6.7-3-5.4-10.1c0.8-5,3.3-10.1,8-10.1c1.8,0,3.6,0.9,3.5,4h6.8c0.2-1.5,0.6-4-0.7-6.3
			C29.9,286.1,27,285.1,23.2,285.1z M296.9,294.4c-3,0-5.7,1-7.4,2.6c-1.5,1.6-1.8,3.4-2,4.4h5.9c0.4-2.4,1.6-3.2,2.7-3.2
			c1.9,0,1.8,2.1,1.4,4.3c-7.2-0.4-11.7,1.7-12.7,7.5c-0.6,3.7,0.7,6.6,4.7,6.6c3.4,0,5-2,6-3.4c-0.2,1.3-0.3,2.2-0.3,3h5.9
			c0.1-2.1,0.1-2.5,0.3-4l1.6-9.8c0.4-2.2,0.3-4.2-0.5-5.5C301.5,294.6,298.4,294.4,296.9,294.4z M295.9,310.1c-0.9,1.7-2.1,2-2.8,2
			c-1.5,0-2.1-1.3-1.8-2.8c0.5-3,3.1-3,5.7-3.1C296.9,307.1,296.6,308.8,295.9,310.1z M230.2,294.4c-6.2,0-9.7,4.5-10.9,11.6
			c-1.2,7,1.3,10.7,7.2,10.7c4.3,0,8.6-2,10-7.4h-5.8c-0.5,2-1.7,3-3.4,3c-3.2,0-2.5-4-2.3-5.1h12c0.6-3.7,0.8-5.7,0.3-7.5
			C236.5,296.7,234.8,294.4,230.2,294.4z M231.7,303h-6c0.2-1,1-4.4,3.7-4.4C232.2,298.5,231.8,301.8,231.7,303z M247.7,299.4
			l0.6-4.3h-6l-0.6,4.5l-2.8,16.5h6.3l1.5-9c0.4-2.2,1.5-5.6,5.3-5.6c0.4,0,0.6,0,1.3,0.1l1.1-6.8
			C252.9,294.9,249.9,294.8,247.7,299.4z M253.7,316.2h6.3l3.5-21.1h-6.3L253.7,316.2z M276.9,294.4c-4.7,0-9.8,2.8-11.2,11.1
			c-1.3,7.6,2.2,11.2,7.5,11.2c5,0,9.1-3.4,9.9-8.8h-6.4c-0.3,1.6-0.8,4.2-3,4.2c-1.6,0-2.5-1.2-1.6-6.8c0.6-3.7,1.6-6.7,3.9-6.7
			c1.6,0,1.9,1.6,1.6,3.6h6.2c0.1-1.2,0.3-3.1-0.8-5C281.7,294.8,278.7,294.4,276.9,294.4z M104.7,294.4c-6.7,0-10.6,4.7-11.7,11.2
			c-0.4,2.5-0.5,5.7,1,8c1.3,2,3.5,3.1,7.2,3.1c3.4,0,5.7-1.3,7.4-3c2.1-2.2,3.3-5.2,3.8-8.4C113.8,297.8,110.2,294.4,104.7,294.4z
			 M106,305.6c-0.5,2.9-1.6,6.7-4.4,6.7c-0.6,0-1.7-0.1-2.1-1.7c-0.4-1.5-0.2-3.6,0-4.9c0.5-3.1,1.7-6.8,4.4-6.8
			C106.5,298.8,106.7,302,106,305.6z M257.8,291.6h6.4l0.9-5.6h-6.4L257.8,291.6z M157.8,299.4l0.6-4.3h-6l-0.6,4.5l-2.8,16.5h6.3
			l1.5-9c0.4-2.2,1.5-5.6,5.3-5.6c0.4,0,0.6,0,1.3,0.1l1.1-6.8C163,294.9,160,294.8,157.8,299.4z M147.9,287.4
			c-1.7-1.5-4.1-1.5-5.9-1.5h-11.1l-5.1,30.2h6.7l1.8-10.9h4.3c1.3,0,4.2,0,6.3-1.3c1-0.6,4.1-2.9,5-8.3
			C150.6,291.7,149.7,289,147.9,287.4z M143.1,295.4c-0.7,4-3.3,4-4.9,4h-2.9l1.3-8h2.9C141.4,291.5,143.8,291.7,143.1,295.4z
			 M211.6,294.6c-1.7,0-4.4,0.7-6.6,3.9c-0.5-3.7-3.6-3.9-4.6-3.9c-2.5,0-4.6,1.2-6.4,4l0.5-3.5h-6c-0.1,0.6-0.6,4.2-0.7,4.7
			l-2.7,16.2h6.3l2-12c0.4-2.3,1.3-4.5,3.4-4.5c2.5,0,2,2.7,1.7,4.5l-2,12h6.3l2-11.8c0.3-1.8,0.5-2.5,0.8-3
			c0.8-1.4,1.8-1.7,2.6-1.7c2.5,0,2.1,2.5,1.7,4.6l-2,11.9h6.3l1.9-11.5c0.4-2.4,0.8-5,0.2-6.8C215.9,296.6,214.7,294.6,211.6,294.6
			z M175.5,294.4c-6.7,0-10.6,4.7-11.7,11.2c-0.4,2.5-0.5,5.7,1,8c1.3,2,3.5,3.1,7.2,3.1c3.4,0,5.7-1.3,7.4-3
			c2.1-2.2,3.3-5.2,3.8-8.4C184.6,297.8,181,294.4,175.5,294.4z M176.8,305.6c-0.5,2.9-1.6,6.7-4.4,6.7c-0.6,0-1.7-0.1-2.1-1.7
			c-0.4-1.5-0.2-3.6,0-4.9c0.5-3.1,1.7-6.8,4.4-6.8C177.3,298.8,177.4,302,176.8,305.6z"/>
	</g>
</g>
</svg>
