<?xml version="1.0" encoding="utf-8"?>
<!-- Generator: Adobe Illustrator 22.0.1, SVG Export Plug-In . SVG Version: 6.00 Build 0)  -->
<svg version="1.1" id="Capa_1" xmlns="http://www.w3.org/2000/svg" xmlns:xlink="http://www.w3.org/1999/xlink" x="0px" y="0px"
	 viewBox="0 0 500 500" style="enable-background:new 0 0 500 500;" xml:space="preserve">
<style type="text/css">
	.st0{fill:#0D703A;}
</style>
<g>
	<polygon class="st0" points="250,280.5 171.2,201.9 146.5,226.6 250,330.1 353.5,226.6 328.8,201.9 	"/>
	<path class="st0" d="M422.5,77.5C376.4,31.4,315.2,6,250,6C184.8,6,123.6,31.4,77.5,77.5C31.4,123.6,6,184.8,6,250
		c0,65.2,25.4,126.4,71.5,172.5C123.6,468.6,184.8,494,250,494c65.2,0,126.4-25.4,172.5-71.5C468.6,376.4,494,315.2,494,250
		C494,184.8,468.6,123.6,422.5,77.5z M250,460.4c-56.2,0-109-21.9-148.8-61.6C61.5,359,39.6,306.2,39.6,250
		c0-56.2,21.9-109,61.6-148.7C141,61.5,193.8,39.6,250,39.6c116,0,210.4,94.4,210.4,210.4S366,460.4,250,460.4z"/>
</g>
</svg>
