<?xml version="1.0" encoding="utf-8"?>
<!-- Generator: Adobe Illustrator 22.0.1, SVG Export Plug-In . SVG Version: 6.00 Build 0)  -->
<svg version="1.1" id="Capa_1" xmlns="http://www.w3.org/2000/svg" xmlns:xlink="http://www.w3.org/1999/xlink" x="0px" y="0px"
	 viewBox="0 0 24 24" style="enable-background:new 0 0 24 24;" xml:space="preserve">
<style type="text/css">
	.st0{fill:#FFFFFF;}
</style>
<g>
	<title  id="simpleicons-linkedin-icon">LinkedIn icon</title>
	<path class="st0" d="M17.9,7.4c-2.2,0-3.7,1.2-4.3,2.4h-0.1v-2H9.1v14.7h4.6v-7.3c0-1.9,0.4-3.8,2.7-3.8s2.4,2.2,2.4,3.9v7.2h4.6
		l0,0v-8.1C23.4,10.4,22.5,7.4,17.9,7.4z"/>
	<rect x="1.7" y="7.8" class="st0" width="4.6" height="14.7"/>
	<path class="st0" d="M4,0.4C2.5,0.4,1.3,1.6,1.3,3c0,1.5,1.2,2.7,2.7,2.7S6.7,4.6,6.7,3C6.6,1.6,5.4,0.4,4,0.4z"/>
</g>
</svg>
