<?xml version="1.0" encoding="utf-8"?>
<!-- Generator: Adobe Illustrator 22.0.1, SVG Export Plug-In . SVG Version: 6.00 Build 0)  -->
<svg version="1.1" id="Capa_1" xmlns="http://www.w3.org/2000/svg" xmlns:xlink="http://www.w3.org/1999/xlink" x="0px" y="0px"
	 viewBox="0 0 24 24" style="enable-background:new 0 0 24 24;" xml:space="preserve">
<style type="text/css">
	.st0{fill:#00713D;}
</style>
<title  id="simpleicons-storify-icon">Storify icon</title>
<path class="st0" d="M23,8.6c0.3,0.6,0.6,1.3,0.7,2c0.2,0.7,0.3,1.5,0.3,2.3c0,0.8-0.1,1.6-0.2,2.4c-0.2,0.8-0.4,1.6-0.8,2.4
	s-0.8,1.5-1.4,2.2c-0.6,0.7-1.3,1.3-2.1,1.9c-0.8,0.6-1.7,1-2.9,1.4c-1.1,0.4-2.3,0.6-3.6,0.8l-0.3-0.7c0.1,0,0.2,0,0.3-0.1
	c0.1,0,0.4-0.1,0.7-0.3c0.4-0.1,0.7-0.3,1-0.5c0.3-0.2,0.7-0.5,1.1-0.9c0.4-0.4,0.7-0.8,1-1.2c0.3-0.4,0.5-1,0.7-1.6
	c0.2-0.7,0.3-1.4,0.3-2.1c0-0.7-0.1-1.4-0.3-2c-0.2-0.6-0.5-1.2-0.8-1.6c-0.3-0.4-0.7-0.9-1-1.3c-0.4-0.4-0.8-0.8-1.1-1.2
	c-0.4-0.4-0.7-0.7-1.1-1.1c-0.3-0.4-0.6-0.8-0.8-1.2c-0.2-0.4-0.3-0.9-0.3-1.4c0-0.9,0.4-1.7,1.1-2.3c0.7-0.6,1.7-1,2.9-1
	c0.4,0,0.7,0,1.1,0.1c0.4,0.1,0.8,0.2,1.3,0.4c0.5,0.2,1,0.5,1.5,0.9c0.5,0.3,1,0.8,1.5,1.5c0.5,0.6,1,1.3,1.4,2.1
	C23.1,8.5,23,8.6,23,8.6z M1,15.5c-0.3-0.6-0.6-1.3-0.7-2C0.1,12.7,0,12,0,11.2c0-0.8,0.1-1.6,0.2-2.4C0.4,7.9,0.7,7.1,1,6.3
	c0.4-0.8,0.8-1.5,1.4-2.2c0.6-0.7,1.3-1.3,2.1-1.9c0.8-0.6,1.7-1,2.9-1.4C8.6,0.4,9.8,0.2,11.1,0l0.3,0.7c-0.1,0-0.2,0-0.3,0.1
	c-0.1,0-0.4,0.1-0.7,0.3c-0.4,0.2-0.7,0.3-1,0.5C9.1,1.8,8.7,2.1,8.3,2.5s-0.7,0.8-1,1.2C7,4.1,6.8,4.7,6.6,5.3
	C6.4,6,6.3,6.7,6.3,7.5c0,0.7,0.1,1.4,0.3,2c0.2,0.6,0.4,1.2,0.8,1.6c0.3,0.5,0.7,0.9,1.1,1.3c0.4,0.4,0.8,0.8,1.1,1.2
	c0.4,0.4,0.7,0.7,1.1,1.1c0.3,0.4,0.6,0.8,0.8,1.2c0.2,0.4,0.3,0.9,0.3,1.4c0,0.9-0.4,1.7-1,2.3c-0.7,0.6-1.7,1-2.9,1
	c-0.4,0-0.7,0-1.1-0.1c-0.4-0.1-0.8-0.2-1.3-0.4c-0.5-0.2-1-0.5-1.5-0.9c-0.5-0.3-1-0.8-1.5-1.5C1.9,17,1.4,16.3,1,15.5
	C1,15.5,1,15.5,1,15.5z"/>
</svg>
