<?xml version="1.0" encoding="utf-8"?>
<!-- Generator: Adobe Illustrator 22.0.1, SVG Export Plug-In . SVG Version: 6.00 Build 0)  -->
<svg version="1.1" id="Capa_1" xmlns="http://www.w3.org/2000/svg" xmlns:xlink="http://www.w3.org/1999/xlink" x="0px" y="0px"
	 viewBox="0 0 500 159" style="enable-background:new 0 0 500 159;" xml:space="preserve">
<style type="text/css">
	.st0{fill:#3A683D;}
	.st1{fill:#8DBA38;}
	.st2{fill:#7AC143;}
	.st3{fill:#00703C;}
</style>
<g>
	<g>
		<g>
			<path class="st0" d="M461,72.4c-9,5.8-17.8,11.9-26.4,18.3c12.6,7.6,25.1,15.3,37.5,23.2l0,0C468.4,100,464.7,86.2,461,72.4"/>
			<path class="st1" d="M457.1,50.1c-17.5,17.1-33,36.1-47,56l0,0c25-21.7,52.1-40.8,81.3-56.3l0,0
				C479.9,49.4,468.5,49.5,457.1,50.1"/>
			<path class="st0" d="M399.8,117.5L399.8,117.5c15.2-24.9,32.7-48.3,53.1-69.2c-2.4-6.4-7.6-19.1-7.6-19.1
				c-6.9,7.8-13,16.2-18.7,25c-10.9,2.5-21.6,5.6-32,9.7c0,0,13.2,9,19.6,13.5C408.9,90.2,400.3,116,399.8,117.5"/>
			<path class="st0" d="M461,72.4c-9,5.8-17.8,11.9-26.4,18.3c12.6,7.6,25.1,15.3,37.5,23.2l0,0C468.4,100,464.7,86.2,461,72.4"/>
			<path class="st1" d="M457.1,50.1c-17.5,17.1-33,36.1-47,56l0,0c25-21.7,52.1-40.8,81.3-56.3l0,0
				C479.9,49.4,468.5,49.5,457.1,50.1"/>
			<path class="st0" d="M399.8,117.5L399.8,117.5c15.2-24.9,32.7-48.3,53.1-69.2c-2.4-6.4-7.6-19.1-7.6-19.1
				c-6.9,7.8-13,16.2-18.7,25c-10.9,2.5-21.6,5.6-32,9.7c0,0,13.2,9,19.6,13.5C408.9,90.2,400.3,116,399.8,117.5"/>
			<path class="st2" d="M457.1,50.1c-17.5,17.1-33,36.1-47,56l0,0c25-21.7,52.1-40.8,81.3-56.3l0,0
				C479.9,49.4,468.5,49.5,457.1,50.1"/>
			<path class="st3" d="M461,72.4c-9,5.8-17.8,11.9-26.4,18.3c12.6,7.6,25.1,15.3,37.5,23.2l0,0C468.4,100,464.7,86.2,461,72.4z
				 M445.4,29.3c-6.9,7.8-13,16.2-18.7,25c-10.9,2.5-21.6,5.6-32,9.7c0,0,13.2,9,19.6,13.5c-5.5,12.7-14.1,38.4-14.6,40l0,0
				c15.1-24.9,32.7-48.3,53.1-69.2C450.4,42,445.4,29.3,445.4,29.3z"/>
		</g>
		<path class="st3" d="M223.3,81.8c1.6-8.9-3-13-9.6-13c-8.1,0-13,5.6-14.3,13.3c-0.5,3-0.6,6.8,1.3,9.6c1.6,2.4,4.3,3.7,8.8,3.7
			c4.2,0,7-1.6,9.1-3.6C221.1,89.2,222.6,85.5,223.3,81.8z M215.3,82.2c-0.6,3.5-2,8-5.4,8c-0.7,0-2.1-0.1-2.7-2
			c-0.5-1.9-0.2-4.3,0.1-5.9c0.7-3.8,2.1-8,5.4-8C215.8,74.2,216,77.8,215.3,82.2z M346.9,68.8c-7.6,0-11.8,5.5-13.3,13.8
			c-1.4,8.3,1.6,12.7,8.8,12.7c5.3,0,10.5-2.4,12.2-8.7h-7.1c-0.6,2.4-2.1,3.6-4.1,3.6c-3.9,0-3.1-4.7-2.9-6.1h14.7
			c0.7-4.4,1-6.8,0.4-9C354.9,71.6,352.6,68.8,346.9,68.8z M348.9,79h-7.4c0.3-1.2,1.3-5.3,4.6-5.3C349.5,73.8,349,77.6,348.9,79z
			 M238.5,94.8l12.1-25.1h-7.3L236,87.3l-1-17.6h-8.2l3.4,25.1C230.2,94.8,238.5,94.8,238.5,94.8z M188.7,94.8l1.9-10.7
			c0.4-2.7,1.9-6.7,6.5-6.7c0.5,0,0.7,0.1,1.6,0.1l1.3-8.1c-1.8-0.1-5.4-0.2-8.1,5.4l0.8-5.2h-7.5l-0.7,5.3l-3.4,19.8H188.7z
			 M325.5,74.9l0.8-5.2h-7.5l-0.7,5.3l-3.4,19.8h7.6l1.9-10.7c0.4-2.7,1.9-6.7,6.5-6.7c0.5,0,0.7,0.1,1.6,0.1l1.4-8.1
			C331.9,69.4,328.2,69.2,325.5,74.9z M378.7,77.5c0.9-7-3.5-8.4-7.8-8.4c-3,0-5.6,0.6-7.6,2.1c-1.6,1.1-3,3.2-3.4,5.7
			c-0.9,5.2,2.6,6.4,3.8,6.8l3.9,1.5c1.6,0.5,2.7,1,2.4,2.8c-0.2,1.1-1,2.5-2.7,2.5c-1.3,0-1.9-0.7-2-1.6c-0.1-0.8,0-1.8,0.1-2.2
			h-7.6c-1.5,8.1,4.4,8.9,8.5,8.9c1.8,0,9.8,0,11.3-8.5c0.8-4.9-1.8-6.3-3.6-6.9l-5.2-1.9c-1.2-0.4-1.9-1-1.6-2.4
			c0.3-1.6,1.5-2.2,2.7-2.2c1.3,0,1.7,0.5,1.9,1.3c0.1,0.7,0,1.7-0.1,2.4L378.7,77.5L378.7,77.5L378.7,77.5z M163.1,81.8l5.3-0.1
			c1.6,0,5.1,0,7.7-1.6c1.3-0.7,5-3.5,6.1-9.8c0.8-4.7-0.3-8-2.4-9.8c-2.1-1.9-5-1.9-7.3-1.9h-13.6l-6.3,36.1h8.3L163.1,81.8z
			 M166,65.4h3.6c2.4,0,5.3,0.2,4.4,4.7c-0.8,4.9-4.1,4.9-6.1,4.9h-3.6L166,65.4z M287.9,58.7h-7.7l-6.3,36.1h7.7L287.9,58.7z
			 M271.5,78.3c0.4-2.7,0.4-5-0.7-6.6c-1.7-2.6-5.6-2.9-7.4-2.9c-3.7,0-7.1,1.2-9,3.2c-1.9,1.9-2.3,4.1-2.5,5.3h7.3
			c0.4-2.9,2-3.8,3.4-3.8c2.3,0,2.1,2.5,1.7,5.2c-8.7-0.4-14.4,2.1-15.5,8.9c-0.7,4.4,0.8,7.8,5.8,7.8c4.2,0,6.2-2.4,7.5-4.1
			c-0.3,1.6-0.4,2.7-0.4,3.6h7.3c0.1-2.5,0.1-3,0.4-4.8L271.5,78.3z M262.1,87.6c-1.1,2-2.6,2.4-3.4,2.4c-1.9,0-2.5-1.6-2.2-3.4
			c0.6-3.6,3.8-3.6,7-3.7C263.3,84,263,86,262.1,87.6z M302.7,68.8c-8.1,0-13,5.6-14.3,13.3c-0.5,3-0.6,6.8,1.3,9.6
			c1.6,2.4,4.3,3.7,8.8,3.7c4.2,0,7-1.6,9.1-3.6c2.6-2.6,4.1-6.3,4.7-10C313.8,72.9,309.4,68.8,302.7,68.8z M304.4,82.2
			c-0.6,3.5-2,8-5.4,8c-0.7,0-2.1-0.1-2.7-2c-0.5-1.9-0.2-4.3,0.1-5.9c0.7-3.8,2.1-8,5.4-8C304.9,74.2,305.1,77.8,304.4,82.2z
			 M273.6,111.1l0.3-2.2h-3.1l-0.3,2.3l-1.4,8.4h3.2l0.7-4.5c0.2-1.2,0.7-2.9,2.7-2.9c0.2,0,0.3,0,0.7,0.1l0.6-3.4
			C276.2,108.8,274.7,108.7,273.6,111.1z M222.8,105c-0.9-0.8-2.1-0.8-3-0.8h-5.6l-2.6,15.4h3.4l1-5.6h2.2c0.7,0,2.1,0,3.2-0.7
			c0.5-0.3,2.1-1.5,2.5-4.2C224.2,107.2,223.7,105.7,222.8,105z M220.5,109c-0.4,2.1-1.7,2.1-2.5,2.1h-1.5l0.7-4.1h1.5
			C219.6,107,220.8,107.2,220.5,109z M159.5,103.8c-1.5,0-3.6,0.3-5.4,2.1c-1.7,1.7-2.5,4.3-2.9,6.1c-0.4,2.4-0.1,4.9,1.2,6.4
			c1.2,1.3,3,1.6,4.3,1.6c1.8,0,3.7-0.3,5.6-0.9l1.4-8.2h-5.8l-0.5,2.9h2.6l-0.5,3c-0.7,0.1-1.3,0.2-1.9,0.2c-2.1,0-3.3-1.5-2.7-5.1
			c0.4-2.6,1.7-5.1,4-5.1c1,0,1.9,0.4,1.8,2.1h3.4c0.1-0.7,0.3-2-0.4-3.2C162.9,104.3,161.5,103.8,159.5,103.8z M227.9,111.1
			l0.3-2.2h-3.1l-0.3,2.3l-1.4,8.4h3.2l0.7-4.5c0.2-1.2,0.7-2.9,2.7-2.9c0.2,0,0.3,0,0.7,0.1l0.6-3.4
			C230.5,108.8,229,108.7,227.9,111.1z M276.6,119.6h3.2l1.8-10.7h-3.2L276.6,119.6z M288.4,108.5c-2.4,0-5,1.4-5.7,5.6
			c-0.7,3.9,1.1,5.7,3.8,5.7c2.6,0,4.6-1.7,5-4.4h-3.2c-0.1,0.8-0.4,2.1-1.5,2.1c-0.8,0-1.3-0.7-0.8-3.4c0.3-1.9,0.8-3.3,2-3.3
			c0.8,0,1,0.8,0.8,1.9h3.1c0.1-0.6,0.1-1.6-0.4-2.6C290.7,108.7,289.3,108.5,288.4,108.5z M278.7,107.1h3.3l0.4-2.9h-3.3
			L278.7,107.1z M169,111.1l0.3-2.2h-3.1l-0.3,2.3l-1.3,8.4h3.2l0.7-4.5c0.2-1.2,0.7-2.9,2.7-2.9c0.2,0,0.3,0,0.7,0.1l0.6-3.4
			C171.7,108.8,170.1,108.7,169,111.1z M179.5,108.9l-1,6.2c-0.1,0.6-0.4,2.1-1.7,2.1c-1.3,0-1-1.5-0.9-2.1l1-6.2h-3.2l-1,6
			c-0.4,2.1-0.7,4.9,2.3,4.9c0.7,0,1.9-0.1,3-1.9l-0.2,1.6h3.1c0.1-0.8,0.1-1,0.3-1.9l1.5-8.8L179.5,108.9L179.5,108.9z
			 M200.9,108.5c-3.3,0-5.4,2.4-5.9,5.7c-0.2,1.3-0.2,2.9,0.5,4.1c0.7,1,1.8,1.6,3.6,1.6c1.8,0,2.9-0.7,3.8-1.6
			c1-1.1,1.7-2.7,1.9-4.2C205.5,110.3,203.7,108.5,200.9,108.5z M201.6,114.2c-0.2,1.5-0.8,3.4-2.2,3.4c-0.3,0-0.9-0.1-1.1-0.9
			c-0.2-0.8-0.1-1.9,0-2.5c0.3-1.6,0.8-3.4,2.2-3.4C201.8,110.8,201.9,112.3,201.6,114.2z M236.9,108.5c-3.3,0-5.4,2.4-5.9,5.7
			c-0.2,1.3-0.2,2.9,0.5,4.1c0.7,1,1.8,1.6,3.6,1.6c1.8,0,2.9-0.7,3.8-1.6c1-1.1,1.7-2.7,1.9-4.2
			C241.5,110.3,239.7,108.5,236.9,108.5z M237.6,114.2c-0.2,1.5-0.8,3.4-2.2,3.4c-0.3,0-0.9-0.1-1.1-0.9c-0.2-0.8-0.1-1.9,0-2.5
			c0.3-1.6,0.8-3.4,2.2-3.4C237.8,110.8,237.9,112.3,237.6,114.2z M255.2,108.6c-0.9,0-2.2,0.4-3.3,2c-0.2-1.9-1.9-2-2.4-2
			c-1.3,0-2.4,0.7-3.2,2l0.3-1.8h-3.1c-0.1,0.3-0.3,2.1-0.4,2.4l-1.4,8.3h3.2l1-6.1c0.2-1.2,0.7-2.3,1.8-2.3c1.3,0,1,1.3,0.9,2.3
			l-1,6.1h3.2l1-6c0.1-0.9,0.3-1.3,0.4-1.5c0.4-0.7,0.9-0.9,1.3-0.9c1.3,0,1,1.3,0.9,2.4l-1,6.1h3.2l1-5.8c0.2-1.3,0.4-2.5,0.1-3.5
			C257.3,109.7,256.8,108.6,255.2,108.6z M298.5,108.5c-1.6,0-3,0.5-3.8,1.3c-0.8,0.8-1,1.8-1,2.2h3c0.2-1.2,0.8-1.6,1.4-1.6
			c1,0,0.9,1,0.7,2.2c-3.6-0.2-5.9,0.9-6.4,3.8c-0.3,1.9,0.4,3.3,2.4,3.3c1.8,0,2.6-1,3.1-1.8c-0.1,0.7-0.1,1.2-0.1,1.6h3
			c0-1,0.1-1.3,0.1-2.1l0.8-5c0.2-1.2,0.1-2.1-0.3-2.8C300.9,108.6,299.3,108.5,298.5,108.5z M298,116.5c-0.4,0.9-1.1,1-1.4,1
			c-0.7,0-1-0.7-0.9-1.5c0.2-1.6,1.6-1.6,2.9-1.6C298.5,114.9,298.4,115.8,298,116.5z M264.6,108.5c-3.1,0-4.9,2.3-5.5,5.9
			c-0.6,3.6,0.7,5.4,3.6,5.4c2.2,0,4.4-1,5-3.7h-3c-0.2,1-0.9,1.6-1.7,1.6c-1.6,0-1.3-2-1.2-2.6h6.1c0.3-1.9,0.4-2.9,0.1-3.8
			C267.9,109.7,267,108.5,264.6,108.5z M265.3,112.9h-3c0.1-0.5,0.5-2.2,1.9-2.2S265.4,112.3,265.3,112.9z M190.9,108.6
			c-1.8,0-2.7,1.3-3.1,1.8l0.2-1.5h-3.1c-0.1,0.4-0.1,0.6-0.2,1.8l-2.2,13h3.2l0.9-5.3c0.3,0.5,0.8,1.5,2.3,1.5
			c1.9,0,4.1-1.6,4.7-5.8C194.4,109.6,192.3,108.6,190.9,108.6z M190.4,114c-0.3,1.6-0.8,3.4-2.1,3.4c-1.5,0-1.1-2.4-1-3.2
			c0.1-0.6,0.5-3.3,2.1-3.3C190.8,110.9,190.6,112.9,190.4,114z"/>
	</g>
	<g>
		<path class="st3" d="M8.6,95.4l31.7-25.8C47,64.5,50.4,59.3,50.5,54c0.1-5.3-1.5-9.6-4.8-12.9c-3.4-3.3-7.4-5-12.2-5
			c-4.1,0-7.8,1.3-10.9,3.9c-3.2,2.6-5.2,6-6,10.3l-6.2,0c0.9-6.1,3.5-11,7.8-14.7c4.4-3.8,9.5-5.7,15.3-5.7
			c6.4,0,11.9,2.3,16.5,6.8c4.6,4.5,6.8,10.3,6.6,17.5c-0.2,7.2-3.6,13.3-10.1,18.5L26.3,89.1l29.4,0v6.3L8.6,95.4z"/>
		<path class="st2" d="M98.8,52.2c5.2,4.9,7.8,10.9,7.8,17.9c0,7-2.6,13-7.8,18c-5.1,4.9-11.4,7.4-18.7,7.4
			c-6.1,0-11.5-1.8-16.2-5.4c-4.7-3.5-7.9-8.4-9.6-14.7h6.8c1.5,4.2,3.9,7.5,7.3,9.9c3.5,2.4,7.4,3.7,11.7,3.7
			c5.5,0,10.2-1.8,14.1-5.5c3.8-3.7,5.8-8.1,5.8-13.3c0-5.2-1.9-9.6-5.8-13.3c-3.9-3.7-8.7-5.5-14.4-5.5l0,0H66v-1V30.9v-1h22.1v6.4
			H72.4l0,8.5h6.9C87.2,44.8,93.7,47.3,98.8,52.2"/>
		<path class="st3" d="M18.2,127.2h-1.9l8.3-21h2.2l8.4,21h-2.1l-2.2-5.7H20.5L18.2,127.2z M21.1,119.8h9.1L25.7,108L21.1,119.8z"/>
		<path class="st3" d="M38.1,127.2v-21h2.2l11.6,18.4v-18.4h1.9v21h-2.4L40,109.1v18.1H38.1z M48.8,100.6h1.1
			c-0.4,1.6-1.3,2.5-2.6,2.5c-0.3,0-0.7-0.1-1.3-0.3c-0.6-0.2-1.1-0.3-1.5-0.3c-0.8,0-1.2,0.3-1.4,0.8h-1.1c0.4-1.6,1.2-2.4,2.6-2.4
			c0.2,0,0.3,0,0.5,0c0.2,0,0.6,0.1,1.1,0.3c0.5,0.2,0.9,0.3,1.1,0.3C48.1,101.6,48.5,101.3,48.8,100.6"/>
		<path class="st3" d="M77,116.7c0,3.3-0.8,6-2.4,7.9c-1.7,2-4,3-6.9,3c-3,0-5.3-1-6.9-3c-1.6-1.9-2.4-4.6-2.4-7.9
			c0-3.3,0.8-6,2.4-7.9c1.7-2,4-3,6.9-3c3,0,5.3,1,6.9,3C76.2,110.7,77,113.4,77,116.7 M60.3,116.7c0,2.6,0.6,4.7,1.7,6.3
			c1.3,1.9,3.2,2.9,5.6,2.9c2.4,0,4.3-1,5.6-2.9c1.1-1.6,1.7-3.7,1.7-6.3c0-2.6-0.6-4.7-1.7-6.3c-1.3-1.9-3.2-2.9-5.6-2.9
			c-2.4,0-4.3,1-5.6,2.9C60.9,112.1,60.3,114.2,60.3,116.7"/>
		<path class="st3" d="M95,121.7c0,2.1-0.8,3.7-2.5,4.7c-1.4,0.9-3.3,1.3-5.6,1.3c-1.7,0-3.1-0.6-4.3-1.7c-1.2-1.1-1.9-2.5-1.9-4.2
			h2c0.1,2.8,1.8,4.2,5.3,4.2c1.3,0,2.4-0.3,3.4-1c1.1-0.8,1.7-1.8,1.7-3c0-1.7-1.1-2.9-3.3-3.7c-2.4-0.8-3.7-1.2-3.7-1.2
			c-1.5-0.6-2.6-1.2-3.4-2c-1-1-1.5-2.1-1.5-3.5c0-1.7,0.7-3.1,2.1-4.2c1.3-1,2.8-1.5,4.6-1.5c1.7,0,3.1,0.3,4.3,1
			c1.5,0.9,2.3,2.2,2.6,4h-2c-0.1-2.2-1.6-3.3-4.6-3.3c-1.2,0-2.3,0.3-3.3,0.9c-1.1,0.7-1.6,1.6-1.6,2.8c0,1.6,1,2.9,3.1,3.7
			c1.9,0.7,3.8,1.4,5.7,2.1C94,118.1,95,119.6,95,121.7"/>
		<rect x="122.6" y="20.5" class="st2" width="1.4" height="118"/>
	</g>
</g>
</svg>
