<?xml version="1.0" encoding="utf-8"?>
<!-- Generator: Adobe Illustrator 22.0.1, SVG Export Plug-In . SVG Version: 6.00 Build 0)  -->
<svg version="1.1" id="Capa_1" xmlns="http://www.w3.org/2000/svg" xmlns:xlink="http://www.w3.org/1999/xlink" x="0px" y="0px"
	 viewBox="0 0 500 218.6" style="enable-background:new 0 0 500 218.6;" xml:space="preserve">
<style type="text/css">
	.st0{fill:#3A683D;}
	.st1{fill:#8DBA38;}
	.st2{fill:#7AC143;}
	.st3{fill:#00703C;}
</style>
<g>
	<g>
		<g>
			<path class="st0" d="M460.3,59.1c-9.8,6.4-19.4,13-28.8,20c13.7,8.2,27.4,16.7,40.8,25.3l0,0C468.3,89.3,464.3,74.3,460.3,59.1"
				/>
			<path class="st1" d="M456,34.9c-19,18.7-36,39.3-51.3,61.1l0,0c27.2-23.7,56.8-44.5,88.6-61.5v-0.1
				C480.9,34.1,468.5,34.2,456,34.9"/>
			<path class="st0" d="M393.6,108.4L393.6,108.4c16.5-27.1,35.7-52.6,57.9-75.4c-2.7-6.9-8.2-20.8-8.2-20.8
				c-7.5,8.5-14.2,17.7-20.3,27.2c-11.8,2.7-23.6,6.1-34.8,10.6c0,0,14.3,9.8,21.4,14.8C403.5,78.6,394.2,106.7,393.6,108.4"/>
			<path class="st0" d="M460.3,59.1c-9.8,6.4-19.4,13-28.8,20c13.7,8.2,27.4,16.7,40.8,25.3l0,0C468.3,89.3,464.3,74.3,460.3,59.1"
				/>
			<path class="st1" d="M456,34.9c-19,18.7-36,39.3-51.3,61.1l0,0c27.2-23.7,56.8-44.5,88.6-61.5v-0.1
				C480.9,34.1,468.5,34.2,456,34.9"/>
			<path class="st0" d="M393.6,108.4L393.6,108.4c16.5-27.1,35.7-52.6,57.9-75.4c-2.7-6.9-8.2-20.8-8.2-20.8
				c-7.5,8.5-14.2,17.7-20.3,27.2c-11.8,2.7-23.6,6.1-34.8,10.6c0,0,14.3,9.8,21.4,14.8C403.5,78.6,394.2,106.7,393.6,108.4"/>
			<path class="st2" d="M456,34.9c-19,18.7-36,39.3-51.3,61.1l0,0c27.2-23.7,56.8-44.5,88.6-61.5v-0.1
				C480.9,34.1,468.5,34.2,456,34.9"/>
			<path class="st3" d="M460.3,59.1c-9.8,6.4-19.4,13-28.8,20c13.7,8.2,27.4,16.7,40.8,25.3l0,0C468.3,89.3,464.3,74.3,460.3,59.1z
				 M443.3,12.2c-7.5,8.5-14.2,17.7-20.3,27.2c-11.8,2.7-23.6,6.1-34.8,10.6c0,0,14.3,9.8,21.4,14.8c-6,13.8-15.4,41.9-16,43.6h0.1
				c16.5-27.1,35.6-52.6,57.9-75.4C448.8,26.1,443.3,12.2,443.3,12.2z"/>
		</g>
		<path class="st3" d="M437.4,121.2c-8.3,0-12.9,6-14.5,15.1c-1.6,9,1.8,13.8,9.5,13.8c5.8,0,11.5-2.7,13.3-9.5h-7.8
			c-0.7,2.6-2.3,4-4.5,4c-4.3,0-3.3-5.2-3.1-6.6h16c0.8-4.8,1-7.4,0.4-9.8C446,124.3,443.6,121.2,437.4,121.2z M439.4,132.4h-8
			c0.3-1.3,1.4-5.7,5-5.7C440.1,126.6,439.7,130.8,439.4,132.4z M414,127.8l0.8-5.7h-8.1l-0.8,5.9l-3.7,21.5h8.3l2-11.6
			c0.5-3,2-7.4,7.1-7.4c0.6,0,0.8,0.1,1.7,0.2l1.5-8.8C421,121.9,416.9,121.7,414,127.8z M472,130.6c0.9-7.6-3.8-9.2-8.6-9.2
			c-3.3,0-6.1,0.7-8.3,2.3c-1.7,1.2-3.3,3.5-3.7,6.2c-0.9,5.6,2.8,7,4.1,7.4l4.2,1.6c1.8,0.6,3,1.2,2.6,3.1c-0.2,1.2-1.1,2.8-3,2.8
			c-1.5,0-2-0.8-2.2-1.7c-0.2-0.9,0-2,0.1-2.5h-8.3c-1.6,8.8,4.8,9.7,9.3,9.7c2,0,10.7,0,12.3-9.3c0.9-5.4-2-6.8-4-7.5l-5.6-2
			c-1.3-0.4-2.1-1.1-1.8-2.6c0.3-1.7,1.6-2.4,2.9-2.4c1.3,0,1.8,0.6,2.1,1.5c0.2,0.8,0,1.8-0.2,2.7H472L472,130.6z M302.5,135.4
			c1.7-9.7-3.2-14.2-10.4-14.2c-8.9,0-14.1,6.1-15.6,14.5c-0.6,3.3-0.7,7.4,1.4,10.4c1.7,2.6,4.7,4,9.6,4c4.6,0,7.6-1.7,9.9-3.9
			C300.2,143.5,301.8,139.4,302.5,135.4z M293.8,135.8c-0.7,3.8-2.2,8.7-5.9,8.7c-0.8,0-2.2-0.1-2.8-2.2c-0.6-2-0.3-4.7,0.1-6.5
			c0.7-4.1,2.2-8.7,5.9-8.7C294.4,127.1,294.6,131.1,293.8,135.8z M319.2,149.6l13.2-27.4h-7.9l-8.1,19.2l-1.1-19.2h-9l3.7,27.4
			H319.2z M355.1,131.5c0.5-3,0.4-5.5-0.7-7.2c-1.8-2.8-6.1-3.2-8.1-3.2c-4.1,0-7.8,1.2-9.9,3.5c-2.1,2.1-2.5,4.5-2.7,5.7h8
			c0.5-3.1,2.1-4.1,3.7-4.1c2.5,0,2.4,2.7,1.8,5.7c-9.5-0.5-15.6,2.2-17,9.7c-0.8,4.9,0.9,8.5,6.4,8.5c4.6,0,6.8-2.6,8.1-4.5
			c-0.3,1.7-0.4,3-0.4,3.9h8c0.1-2.7,0.1-3.3,0.4-5.2L355.1,131.5z M344.9,141.7c-1.2,2.2-2.8,2.6-3.7,2.6c-2,0-2.8-1.7-2.4-3.7
			c0.7-3.9,4.1-4,7.7-4C346.2,137.8,345.8,140,344.9,141.7z M373,110.1h-8.4l-6.8,39.4h8.4L373,110.1z M389.2,121.3
			c-8.9,0-14.1,6.1-15.6,14.5c-0.6,3.3-0.7,7.4,1.4,10.4c1.7,2.6,4.7,4,9.6,4c4.6,0,7.6-1.7,9.9-3.9c2.8-2.8,4.5-6.9,5.1-10.9
			C401.3,125.7,396.5,121.3,389.2,121.3z M390.9,135.8c-0.7,3.8-2.2,8.7-5.9,8.7c-0.8,0-2.2-0.1-2.8-2.2c-0.6-2-0.3-4.7,0.1-6.5
			c0.7-4.1,2.2-8.7,5.9-8.7C391.5,127.1,391.8,131.1,390.9,135.8z M264.8,149.6l2-11.6c0.5-3,2-7.4,7.1-7.4c0.6,0,0.8,0.1,1.7,0.2
			l1.5-8.8c-1.9-0.1-5.9-0.2-8.9,5.9l0.8-5.7H261l-0.8,5.9l-3.7,21.5L264.8,149.6L264.8,149.6z M236.9,135.4l5.8-0.1
			c1.7,0,5.6,0,8.4-1.7c1.4-0.8,5.5-3.8,6.7-10.8c0.9-5.1-0.3-8.7-2.7-10.7c-2.3-2-5.5-2-8-2h-14.7l-6.8,39.4h8.9L236.9,135.4z
			 M240.1,117.5h3.9c2.6,0,5.7,0.3,4.9,5.1c-0.9,5.3-4.4,5.3-6.6,5.3h-4L240.1,117.5z M267.3,164.6c-2,0-3,1.4-3.3,2l0.2-1.7h-3.4
			c-0.1,0.5-0.1,0.6-0.2,1.9l-2.4,14.2h3.5l1-5.8c0.3,0.6,0.9,1.6,2.5,1.6c2.1,0,4.4-1.8,5.2-6.3C271,165.7,268.8,164.6,267.3,164.6
			z M266.7,170.4c-0.3,1.7-0.9,3.7-2.4,3.7c-1.6,0-1.2-2.6-1.1-3.5c0.1-0.7,0.6-3.6,2.4-3.6C267.1,167.1,266.9,169.4,266.7,170.4z
			 M243.4,167.3l0.3-2.4h-3.3l-0.3,2.5l-1.6,9.2h3.5l0.8-5c0.2-1.2,0.8-3.1,3-3.1c0.2,0,0.3,0,0.7,0.1l0.6-3.7
			C246.3,164.8,244.6,164.7,243.4,167.3z M254.9,164.9l-1.1,6.8c-0.1,0.7-0.4,2.3-1.8,2.3c-1.4,0-1.1-1.6-1-2.3l1.2-6.8h-3.5
			l-1.1,6.6c-0.4,2.2-0.7,5.3,2.5,5.3c0.8,0,2-0.1,3.2-2l-0.2,1.8h3.4c0.1-0.9,0.2-1,0.3-2l1.6-9.7H254.9z M233,159.4
			c-1.6,0-4,0.3-5.9,2.2c-1.8,1.8-2.8,4.6-3.1,6.6c-0.4,2.7-0.1,5.3,1.3,6.9c1.3,1.5,3.2,1.7,4.7,1.7c2,0,4-0.3,6-0.9l1.5-9h-6.3
			l-0.6,3.2h2.8l-0.6,3.2c-0.7,0.2-1.4,0.3-2.1,0.3c-2.2,0-3.7-1.7-3-5.6c0.4-2.8,1.8-5.6,4.4-5.6c1,0,2,0.5,2,2.2h3.7
			c0.1-0.8,0.3-2.2-0.4-3.5C236.8,159.9,235.1,159.4,233,159.4z M384.6,164.5c-1.7,0-3.2,0.6-4.1,1.5c-0.8,0.9-1,1.9-1.1,2.5h3.3
			c0.2-1.3,0.9-1.8,1.5-1.8c1.1,0,1,1.2,0.8,2.4c-4-0.2-6.5,0.9-7,4.1c-0.3,2.1,0.4,3.6,2.6,3.6c1.9,0,2.8-1.1,3.3-1.9
			c-0.1,0.7-0.2,1.2-0.2,1.7h3.3c0.1-1.2,0.1-1.4,0.2-2.2l0.9-5.4c0.2-1.2,0.2-2.3-0.3-3.1C387.1,164.6,385.4,164.5,384.6,164.5z
			 M384,173.2c-0.5,0.9-1.2,1.1-1.6,1.1c-0.8,0-1.2-0.7-1-1.6c0.3-1.7,1.7-1.7,3.2-1.7C384.6,171.5,384.4,172.5,384,173.2z
			 M347.6,164.5c-3.4,0-5.4,2.5-6,6.4c-0.7,3.9,0.7,5.9,4,5.9c2.4,0,4.7-1.1,5.5-4.1h-3.2c-0.3,1.1-0.9,1.7-1.9,1.7
			c-1.8,0-1.4-2.2-1.3-2.8h6.6c0.3-2.1,0.4-3.2,0.2-4.1C351.1,165.8,350.2,164.5,347.6,164.5z M348.5,169.3h-3.3
			c0.1-0.6,0.6-2.5,2.1-2.5C348.7,166.8,348.5,168.6,348.5,169.3z M357.3,167.3l0.3-2.4h-3.3l-0.3,2.5l-1.6,9.2h3.5l0.8-5
			c0.2-1.2,0.8-3.1,3-3.1c0.2,0,0.3,0,0.7,0.1l0.6-3.7C360.2,164.8,358.6,164.7,357.3,167.3z M360.7,176.6h3.5l2-11.7h-3.5
			L360.7,176.6z M373.5,164.5c-2.6,0-5.4,1.6-6.2,6.1c-0.7,4.2,1.2,6.2,4.1,6.2c2.8,0,5-1.9,5.5-4.9h-3.5c-0.2,0.9-0.4,2.3-1.7,2.3
			c-0.9,0-1.4-0.7-0.9-3.7c0.3-2.1,0.9-3.7,2.2-3.7c0.9,0,1.1,0.9,0.9,2h3.4c0.1-0.7,0.2-1.7-0.4-2.8
			C376.1,164.7,374.5,164.5,373.5,164.5z M278.2,164.5c-3.7,0-5.9,2.6-6.5,6.2c-0.2,1.4-0.3,3.2,0.6,4.4c0.7,1.1,2,1.7,4,1.7
			c1.9,0,3.2-0.7,4.1-1.7c1.2-1.2,1.8-2.9,2.1-4.6C283.2,166.4,281.2,164.5,278.2,164.5z M278.9,170.7c-0.3,1.6-0.9,3.7-2.5,3.7
			c-0.3,0-0.9-0.1-1.2-0.9c-0.2-0.8-0.1-2,0-2.7c0.3-1.7,0.9-3.7,2.5-3.7C279.2,167,279.2,168.7,278.9,170.7z M362.9,163h3.5
			l0.5-3.1h-3.5L362.9,163z M307.5,167.3l0.3-2.4h-3.3l-0.3,2.5l-1.6,9.2h3.5l0.8-5c0.2-1.2,0.8-3.1,3-3.1c0.2,0,0.3,0,0.7,0.1
			l0.6-3.7C310.4,164.8,308.8,164.7,307.5,167.3z M302.1,160.7c-0.9-0.8-2.3-0.8-3.3-0.8h-6.1l-2.8,16.7h3.7l1-6h2.4
			c0.7,0,2.3,0,3.5-0.7c0.6-0.3,2.3-1.6,2.8-4.6C303.6,163,303.1,161.5,302.1,160.7z M299.4,165.1c-0.4,2.2-1.8,2.2-2.7,2.2h-1.6
			l0.7-4.4h1.6C298.5,162.9,299.8,163,299.4,165.1z M337.3,164.6c-0.9,0-2.5,0.4-3.6,2.2c-0.3-2.1-2-2.2-2.6-2.2
			c-1.4,0-2.6,0.7-3.5,2.2l0.3-2h-3.3c-0.1,0.3-0.3,2.3-0.4,2.6l-1.5,9h3.5l1.1-6.6c0.2-1.3,0.7-2.5,1.9-2.5c1.4,0,1.1,1.5,0.9,2.5
			l-1.1,6.6h3.5l1.1-6.5c0.2-1,0.3-1.4,0.4-1.7c0.4-0.8,1-0.9,1.5-0.9c1.4,0,1.2,1.4,0.9,2.6l-1.1,6.6h3.5l1.1-6.4
			c0.2-1.3,0.4-2.8,0.1-3.7C339.7,165.7,339.1,164.6,337.3,164.6z M317.4,164.5c-3.7,0-5.9,2.6-6.5,6.2c-0.2,1.4-0.3,3.2,0.6,4.4
			c0.7,1.1,2,1.7,4,1.7c1.9,0,3.2-0.7,4.1-1.7c1.2-1.2,1.8-2.9,2.1-4.6C322.4,166.4,320.4,164.5,317.4,164.5z M318.1,170.7
			c-0.3,1.6-0.9,3.7-2.5,3.7c-0.3,0-0.9-0.1-1.2-0.9c-0.2-0.8-0.1-2,0-2.7c0.3-1.7,0.9-3.7,2.5-3.7
			C318.4,167,318.4,168.7,318.1,170.7z"/>
	</g>
	<g>
		<g>
			<path class="st3" d="M6.6,140.3l48.7-39.6c10.3-7.8,15.5-15.9,15.6-24c0.2-8.2-2.3-14.8-7.4-19.9c-5.2-5.1-11.4-7.6-18.7-7.6
				c-6.4,0-12,2-16.8,6c-4.9,4-8,9.3-9.2,15.8L9.4,71c1.4-9.3,5.4-16.8,12-22.5c6.8-5.8,14.6-8.8,23.5-8.8c9.9,0,18.3,3.5,25.3,10.4
				c7,6.9,10.4,15.9,10.1,26.9c-0.3,11-5.5,20.5-15.6,28.4l-30.9,25.2l45.2,0.1v9.7L6.6,140.3z"/>
			<path class="st2" d="M145.3,74c8,7.6,11.9,16.8,11.9,27.6c0,10.8-4,20-12,27.6c-7.9,7.6-17.5,11.4-28.7,11.4
				c-9.3,0-17.6-2.8-25-8.3c-7.2-5.4-12.1-13-14.7-22.6h10.4c2.3,6.4,6,11.5,11.2,15.2c5.3,3.7,11.4,5.6,18,5.6
				c8.5,0,15.7-2.8,21.7-8.5c5.9-5.7,8.8-12.5,8.8-20.4c0-8-3-14.7-8.9-20.4c-5.9-5.7-13.3-8.5-22.1-8.5l-0.1-0.1H94.8V71V41.2v-1.6
				h34v9.9h-24.1l0.1,13h10.6C127.4,62.5,137.4,66.3,145.3,74"/>
			<path class="st3" d="M21.4,189.1h-3l12.8-32.2h3.4l12.8,32.2h-3.2l-3.4-8.7h-16L21.4,189.1z M25.8,177.8h14.1l-7-18.2L25.8,177.8
				z"/>
			<path class="st3" d="M51.9,189.1v-32.2h3.3L73,185.3v-28.3h2.9v32.2h-3.7l-17.5-27.8v27.8H51.9z M68.4,148.3h1.7
				c-0.6,2.5-2,3.8-4.1,3.8c-0.4,0-1.1-0.2-2.1-0.5c-0.9-0.3-1.7-0.5-2.4-0.5c-1.2,0-1.9,0.4-2.1,1.3h-1.7c0.5-2.4,1.9-3.6,4.1-3.6
				c0.2,0,0.5,0,0.8,0c0.3,0,0.9,0.2,1.8,0.5c0.8,0.3,1.4,0.4,1.7,0.4C67.2,149.8,68,149.3,68.4,148.3"/>
			<path class="st3" d="M111.7,173c0,5.1-1.2,9.2-3.7,12.1c-2.6,3.1-6.1,4.6-10.7,4.6c-4.5,0-8.1-1.5-10.7-4.6
				c-2.5-3-3.7-7-3.7-12.1c0-5.1,1.2-9.2,3.7-12.1c2.6-3.1,6.1-4.6,10.7-4.6c4.6,0,8.1,1.5,10.7,4.6
				C110.5,163.9,111.7,167.9,111.7,173 M86.1,173c0,3.9,0.9,7.2,2.6,9.7c2,2.9,4.9,4.4,8.6,4.4c3.7,0,6.6-1.5,8.7-4.4
				c1.7-2.5,2.6-5.8,2.6-9.7c0-3.9-0.9-7.1-2.6-9.7c-2-2.9-4.9-4.4-8.7-4.4c-3.7,0-6.6,1.5-8.6,4.4C87,165.9,86.1,169.1,86.1,173"/>
			<path class="st3" d="M139.4,180.7c0,3.2-1.3,5.6-3.8,7.2c-2.1,1.3-5,2-8.7,2c-2.6,0-4.8-0.8-6.6-2.5c-1.9-1.7-2.9-3.9-2.9-6.5
				h3.1c0.1,4.3,2.8,6.4,8.1,6.4c2,0,3.7-0.5,5.2-1.6c1.7-1.2,2.5-2.7,2.5-4.6c0-2.6-1.7-4.5-5-5.6c-3.7-1.2-5.7-1.9-5.8-1.9
				c-2.3-0.9-4-1.9-5.2-3c-1.5-1.5-2.2-3.3-2.2-5.4c0-2.7,1.1-4.8,3.2-6.5c2-1.5,4.3-2.2,7-2.2c2.6,0,4.8,0.5,6.6,1.5
				c2.3,1.3,3.6,3.4,3.9,6.2h-3.1c-0.1-3.3-2.4-5-7-5c-1.9,0-3.6,0.5-5,1.3c-1.7,1-2.5,2.5-2.5,4.3c0,2.5,1.6,4.4,4.7,5.8
				c2.9,1.1,5.8,2.2,8.7,3.3C137.8,175.2,139.4,177.5,139.4,180.7"/>
			<rect x="181.8" y="25.2" class="st2" width="2.1" height="181.3"/>
		</g>
	</g>
</g>
</svg>
