<?xml version="1.0" encoding="utf-8"?>
<!-- Generator: Adobe Illustrator 22.0.1, SVG Export Plug-In . SVG Version: 6.00 Build 0)  -->
<svg version="1.1" id="Capa_1" xmlns="http://www.w3.org/2000/svg" xmlns:xlink="http://www.w3.org/1999/xlink" x="0px" y="0px"
	 viewBox="0 0 500 175" style="enable-background:new 0 0 500 175;" xml:space="preserve">
<style type="text/css">
	.st0{fill:#006937;}
	.st1{fill:#76BC21;}
	.st2{fill:#79C243;}
	.st3{fill:#00703E;}
</style>
<g>
	<g>
		<path class="st0" d="M444.5,81.5c-12.9,8.4-25.6,17.1-38,26.3c18.1,10.9,36.1,22.1,53.9,33.5l0,0
			C455.1,121.4,449.7,101.5,444.5,81.5"/>
		<path class="st1" d="M438.9,49.6c-25.1,24.6-47.5,51.9-67.7,80.7l0,0c35.9-31.2,74.9-58.7,117-81.1v-0.1
			C471.7,48.5,455.3,48.7,438.9,49.6"/>
		<path class="st0" d="M356.5,146.6L356.5,146.6c21.8-35.8,47.1-69.5,76.4-99.5c-3.5-9.1-10.8-27.4-10.8-27.4
			c-9.9,11.2-18.7,23.3-26.8,35.9c-15.6,3.6-31.1,8.1-46,14c0,0,19,12.9,28.3,19.5C369.6,107.3,357.2,144.3,356.5,146.6"/>
		<path class="st0" d="M444.5,81.5c-12.9,8.4-25.6,17.1-38,26.3c18.1,10.9,36.1,22.1,53.9,33.5l0,0
			C455.1,121.4,449.7,101.5,444.5,81.5"/>
		<path class="st1" d="M438.9,49.6c-25.1,24.6-47.5,51.9-67.7,80.7l0,0c35.9-31.2,74.9-58.7,117-81.1v-0.1
			C471.7,48.5,455.3,48.7,438.9,49.6"/>
		<path class="st0" d="M356.5,146.6L356.5,146.6c21.8-35.8,47.1-69.5,76.4-99.5c-3.5-9.1-10.8-27.4-10.8-27.4
			c-9.9,11.2-18.7,23.3-26.8,35.9c-15.6,3.6-31.1,8.1-46,14c0,0,19,12.9,28.3,19.5C369.6,107.3,357.2,144.3,356.5,146.6"/>
		<path class="st2" d="M438.9,49.6c-25.1,24.6-47.5,51.9-67.7,80.7l0,0c35.9-31.2,74.9-58.7,117-81.1v-0.1
			C471.7,48.5,455.3,48.7,438.9,49.6"/>
		<path class="st3" d="M444.5,81.5c-12.9,8.4-25.6,17.1-38,26.3c18.1,10.9,36.1,22.1,53.9,33.5l0,0
			C455.1,121.4,449.7,101.5,444.5,81.5z M422,19.6c-9.9,11.2-18.7,23.3-26.8,35.9c-15.6,3.6-31.1,8.1-46,14c0,0,19,12.9,28.3,19.5
			c-7.9,18.2-20.3,55.3-21,57.5h0c21.8-35.8,47-69.5,76.4-99.5C429.3,37.9,422,19.6,422,19.6z"/>
	</g>
	<path class="st3" d="M116.2,85c2.7,0,4,1.9,4,4.1c0,1.7-0.4,4.2-0.9,6l-4.2,19.9h12.6l4.3-20.5c1.1-5.5,3.3-9.5,8.2-9.5
		c2.4,0,4.2,1.3,4.2,4.1c0,1.7-0.4,4-0.8,5.4l-4.3,20.5h12.6l4.9-21.7c0.4-2.1,1-4.7,1-7.7c0-7.2-5.3-10.2-12.4-10.2
		c-5.6,0-9.3,2.4-12.8,6.6c-0.9-5-5.2-6.6-9.8-6.6c-5,0-9.9,2.4-12.7,6.1h-0.1l1-5H99L91,115h12.6l4.7-22
		C109.4,87.8,111.6,85,116.2,85z M74.8,133.7c-2.6,0-3.9,1.8-4.4,2.6l0.3-2.2h-4.5c-0.1,0.6-0.1,0.8-0.3,2.5l-3.2,18.7h4.6l1.3-7.7
		c0.4,0.8,1.1,2.1,3.3,2.1c2.8,0,5.8-2.3,6.8-8.3C79.9,135.2,76.9,133.7,74.8,133.7z M74.1,141.5c-0.4,2.3-1.2,4.9-3.1,4.9
		c-2.1,0-1.6-3.4-1.4-4.6c0.1-0.9,0.8-4.7,3.1-4.7C74.6,137,74.4,140,74.1,141.5z M92.7,62H80.1L69,115h12.6L92.7,62z M31.6,105.5
		h18.6l1.3,9.5h13.9l-8.7-53H42.8l-30.9,53h14.5L31.6,105.5z M46.9,76.2h0.1l2,19.1H37L46.9,76.2z M180.9,116.1
		c9.3,0,17.1-3.6,20.2-12.8h-12.3c-1,2.6-3,4.2-7.3,4.2c-4.2,0-6.5-2.2-6.8-6.2c0-1.3,0.1-1.9,0.1-2.6h27.7c0.3-2.2,0.4-4.3,0.4-6.6
		c0-11.1-7.6-16.8-17.6-16.8c-13.9,0-22.9,10.3-22.9,24C162.4,110.7,170.2,116.1,180.9,116.1z M184.9,83.9c4.2,0,6.2,3.6,5.9,7.9
		h-15.1C176.9,86.9,179.7,83.9,184.9,83.9z M29.7,126.8c-2.1,0-5.3,0.5-7.8,2.9c-2.4,2.4-3.7,6.1-4.1,8.8c-0.6,3.5-0.2,7,1.7,9.1
		c1.7,1.9,4.3,2.3,6.2,2.3c2.6,0,5.3-0.5,8-1.2l2-11.8h-8.3l-0.7,4.2h3.7l-0.7,4.3c-0.9,0.2-1.9,0.4-2.8,0.4c-2.9,0-4.8-2.2-4-7.4
		c0.6-3.7,2.5-7.4,5.8-7.4c1.3,0,2.7,0.6,2.5,2.9h4.9c0.2-1.1,0.4-2.9-0.5-4.6C34.6,127.6,32.4,126.8,29.7,126.8z M43.4,137.3
		l0.5-3.2h-4.5l-0.4,3.3l-2,12.1h4.5l1.1-6.5c0.3-1.7,1.1-4.1,3.9-4.1c0.3,0,0.4,0,1,0.1l0.8-4.9C47.2,134,45,133.9,43.4,137.3z
		 M58.5,134.1l-1.5,8.9c-0.1,0.9-0.5,3.1-2.4,3.1c-1.8,0-1.5-2.1-1.3-3l1.5-9h-4.5l-1.5,8.7c-0.5,2.9-0.9,7,3.3,7
		c1.1,0,2.6-0.2,4.3-2.7l-0.3,2.4h4.5c0.2-1.2,0.2-1.3,0.4-2.7l2.1-12.7H58.5z M89.3,133.6c-4.8,0-7.7,3.4-8.5,8.1
		c-0.3,1.9-0.4,4.2,0.8,5.9c0.9,1.4,2.6,2.3,5.3,2.3c2.5,0,4.2-0.9,5.4-2.2c1.5-1.6,2.4-3.9,2.8-6.1
		C95.9,136.1,93.2,133.6,89.3,133.6z M90.2,141.8c-0.4,2.1-1.2,4.9-3.2,4.9c-0.4,0-1.2-0.1-1.6-1.2c-0.3-1.1-0.1-2.6,0-3.6
		c0.4-2.3,1.2-4.9,3.2-4.9C90.5,136.9,90.7,139.1,90.2,141.8z M201.1,131.6h4.7l0.7-4.1h-4.7L201.1,131.6z M229.7,133.6
		c-2.2,0-4.2,0.7-5.4,1.9c-1.1,1.2-1.3,2.5-1.5,3.2h4.4c0.3-1.7,1.2-2.3,2-2.3c1.4,0,1.3,1.5,1,3.2c-5.2-0.3-8.6,1.3-9.3,5.5
		c-0.5,2.7,0.5,4.8,3.5,4.8c2.5,0,3.7-1.5,4.4-2.5c-0.2,1-0.2,1.7-0.2,2.2h4.4c0-1.5,0.1-1.8,0.3-2.9l1.2-7.2c0.3-1.7,0.2-3.1-0.4-4
		C233.1,133.8,230.8,133.6,229.7,133.6z M228.9,145.1c-0.7,1.2-1.6,1.5-2,1.5c-1.1,0-1.5-0.9-1.3-2.1c0.4-2.2,2.2-2.2,4.2-2.3
		C229.6,142.9,229.4,144.2,228.9,145.1z M215,133.6c-3.4,0-7.2,2.1-8.2,8.1c-0.9,5.5,1.6,8.1,5.5,8.1c3.7,0,6.6-2.5,7.2-6.4h-4.6
		c-0.2,1.2-0.6,3.1-2.2,3.1c-1.1,0-1.9-0.9-1.2-4.9c0.5-2.7,1.2-4.8,2.9-4.8c1.2,0,1.4,1.2,1.2,2.6h4.5c0.1-0.9,0.2-2.3-0.6-3.7
		C218.5,133.9,216.4,133.6,215,133.6z M248.4,76.5h-14l-7,9.9l-3.6-9.9h-13.1l8.8,18.1L202,115h13.9l8.7-11.3l4.8,11.3h13l-9.7-19.8
		L248.4,76.5z M268.5,75.4c-8.2,0-18.6,2.7-18.6,13.1c0,7.3,5,9.3,10.6,10.5c6.2,1.6,9.2,1.7,9.2,5c0,3.1-3.5,3.9-5.6,3.9
		c-2,0-3.8-0.4-5-1.6c-0.9-1-1.5-2.2-1.4-4h-11.6c0.4,10,6.7,13.7,16.5,13.7c9,0,19.7-2.2,19.7-13.9c0-7.6-4.1-9.2-11.2-11
		c-4.5-1.1-8.6-1.6-8.6-4.4c0-2.7,3.1-3.6,5.7-3.6c1.4,0,3,0.4,3.8,1.3c0.7,0.8,1,2,1,3.3h11.4C284.8,78,276.5,75.4,268.5,75.4z
		 M327.5,85.4c0-7.5-6.9-10.1-17.6-10.1c-9.4,0-16.8,3-18.8,13H303c0.5-3.6,3-4.8,7-4.8c3.8,0,5.3,1.5,5.3,3.7c0,5-5.9,4.7-10.2,5
		c-9.9,0.7-19.1,2.7-19.1,13.1c0,7.9,5.3,10.8,12.5,10.8c5.5,0,9.3-1.4,11.6-4.8h0.1c0,2,0,1.9,0.3,3.7H323c-0.2-0.7-0.5-1.6-0.5-3
		c0-2.1,0.5-4.5,1.2-7.2C324.6,101.2,327.5,90.6,327.5,85.4z M303.8,108.3c-2.5,0-5.1-1-5.1-4c0-7.4,11.4-4.3,14.6-7h0.1
		C312.9,100.8,311.4,108.3,303.8,108.3z M198.1,149.5h4.6l2.6-15.4h-4.6L198.1,149.5z M141,133.6c-4.8,0-7.7,3.4-8.5,8.1
		c-0.3,1.9-0.4,4.2,0.8,5.9c0.9,1.4,2.6,2.3,5.3,2.3c2.5,0,4.2-0.9,5.4-2.2c1.5-1.6,2.4-3.9,2.8-6.1
		C147.6,136.1,144.9,133.6,141,133.6z M141.9,141.8c-0.4,2.1-1.2,4.9-3.2,4.9c-0.4,0-1.2-0.1-1.6-1.2c-0.3-1.1-0.1-2.6,0-3.6
		c0.4-2.3,1.2-4.9,3.2-4.9C142.2,136.9,142.4,139.1,141.9,141.8z M128,137.3l0.5-3.2H124l-0.4,3.3l-2,12.1h4.5l1.1-6.5
		c0.3-1.7,1.1-4.1,3.9-4.1c0.3,0,0.4,0,1,0.1l0.8-4.9C131.8,134,129.6,133.9,128,137.3z M167.3,133.7c-1.3,0-3.2,0.5-4.8,2.9
		c-0.3-2.7-2.7-2.8-3.4-2.8c-1.8,0-3.4,0.9-4.6,2.9l0.4-2.5h-4.5c-0.1,0.5-0.4,3.1-0.5,3.5l-2,11.9h4.6l1.5-8.8
		c0.3-1.7,1-3.3,2.5-3.3c1.8,0,1.5,2,1.3,3.3l-1.5,8.8h4.6l1.5-8.6c0.2-1.3,0.4-1.8,0.6-2.2c0.6-1,1.3-1.3,1.9-1.3
		c1.8,0,1.5,1.8,1.3,3.4l-1.5,8.7h4.6l1.4-8.4c0.3-1.8,0.6-3.6,0.2-5C170.5,135.2,169.6,133.7,167.3,133.7z M193.7,137.3l0.5-3.2
		h-4.5l-0.4,3.3l-2,12.1h4.5l1.1-6.5c0.3-1.7,1.1-4.1,3.9-4.1c0.3,0,0.4,0,1,0.1l0.8-4.9C197.5,134,195.3,133.9,193.7,137.3z
		 M120.8,128.5c-1.2-1.1-3-1.1-4.4-1.1h-8.1l-3.7,22.1h4.9l1.3-8l3.2,0c0.9,0,3.1,0,4.6-0.9c0.8-0.5,3-2.1,3.7-6
		C122.7,131.7,122.1,129.7,120.8,128.5z M117.3,134.4c-0.5,3-2.4,3-3.6,3h-2.2l1-5.8h2.1C116.1,131.5,117.8,131.7,117.3,134.4z
		 M180.8,133.6c-4.5,0-7.1,3.3-7.9,8.5c-0.9,5.1,1,7.8,5.2,7.8c3.2,0,6.3-1.5,7.3-5.4h-4.3c-0.4,1.4-1.3,2.2-2.5,2.2
		c-2.3,0-1.8-2.9-1.7-3.7h8.8c0.5-2.7,0.6-4.2,0.2-5.5C185.5,135.3,184.2,133.6,180.8,133.6z M182,139.9h-4.4
		c0.2-0.7,0.8-3.2,2.8-3.2C182.3,136.6,182.1,139,182,139.9z"/>
</g>
</svg>
